<?xml version="1.0" encoding="UTF-8" standalone="no"?>
<!DOCTYPE svg PUBLIC "-//W3C//DTD SVG 1.1//EN"
 "http://www.w3.org/Graphics/SVG/1.1/DTD/svg11.dtd">
<!-- Generated by graphviz version 2.42.4 (0)
 -->
<!-- Title: G Pages: 1 -->
<svg width="502pt" height="334pt"
 viewBox="0.00 0.00 501.80 333.80" xmlns="http://www.w3.org/2000/svg" xmlns:xlink="http://www.w3.org/1999/xlink">
<g id="graph0" class="graph" transform="scale(1 1) rotate(0) translate(14.4 319.4)">
<title>G</title>
<!-- release -->
<g id="node1" class="node">
<title>release</title>
<path fill="#f6f9fd" stroke="#153a66" d="M289.5,-244C289.5,-244 233.5,-244 233.5,-244 227.5,-244 221.5,-238 221.5,-232 221.5,-232 221.5,-220 221.5,-220 221.5,-214 227.5,-208 233.5,-208 233.5,-208 289.5,-208 289.5,-208 295.5,-208 301.5,-214 301.5,-220 301.5,-220 301.5,-232 301.5,-232 301.5,-238 295.5,-244 289.5,-244"/>
<text text-anchor="middle" x="261.5" y="-229" font-family="DejaVu Sans" font-size="10.00">release_data</text>
<text text-anchor="middle" x="261.5" y="-218" font-family="DejaVu Sans" font-size="10.00">/release</text>
</g>
<!-- arch -->
<g id="node2" class="node">
<title>arch</title>
<path fill="#f6f9fd" stroke="#153a66" d="M461,-244C461,-244 406,-244 406,-244 400,-244 394,-238 394,-232 394,-232 394,-220 394,-220 394,-214 400,-208 406,-208 406,-208 461,-208 461,-208 467,-208 473,-214 473,-220 473,-220 473,-232 473,-232 473,-238 467,-244 461,-244"/>
<text text-anchor="middle" x="433.5" y="-229" font-family="DejaVu Sans" font-size="10.00">release_arch</text>
<text text-anchor="middle" x="433.5" y="-218" font-family="DejaVu Sans" font-size="10.00">architecture</text>
</g>
<!-- release&#45;&gt;arch -->
<g id="edge1" class="edge">
<title>release&#45;&gt;arch</title>
<path fill="none" stroke="#2d6fb7" stroke-width="1.3" d="M301.5,-226C326.86,-226 360.03,-226 386.65,-226"/>
<polygon fill="#2d6fb7" stroke="#2d6fb7" stroke-width="1.3" points="386.97,-228.45 393.97,-226 386.97,-223.55 386.97,-228.45"/>
<text text-anchor="middle" x="359" y="-228.6" font-family="DejaVu Sans" font-size="8.00">archfk</text>
</g>
<!-- site -->
<g id="node3" class="node">
<title>site</title>
<path fill="#f6f9fd" stroke="#153a66" d="M276.5,-114C276.5,-114 246.5,-114 246.5,-114 240.5,-114 234.5,-108 234.5,-102 234.5,-102 234.5,-90 234.5,-90 234.5,-84 240.5,-78 246.5,-78 246.5,-78 276.5,-78 276.5,-78 282.5,-78 288.5,-84 288.5,-90 288.5,-90 288.5,-102 288.5,-102 288.5,-108 282.5,-114 276.5,-114"/>
<text text-anchor="middle" x="261.5" y="-93.5" font-family="DejaVu Sans" font-size="10.00">site</text>
</g>
<!-- req -->
<g id="node4" class="node">
<title>req</title>
<path fill="#f6f9fd" stroke="#153a66" d="M67,-164C67,-164 37,-164 37,-164 31,-164 25,-158 25,-152 25,-152 25,-140 25,-140 25,-134 31,-128 37,-128 37,-128 67,-128 67,-128 73,-128 79,-134 79,-140 79,-140 79,-152 79,-152 79,-158 73,-164 67,-164"/>
<text text-anchor="middle" x="52" y="-143.5" font-family="DejaVu Sans" font-size="10.00">request</text>
</g>
<!-- req&#45;&gt;release -->
<g id="edge2" class="edge">
<title>req&#45;&gt;release</title>
<path fill="none" stroke="#2d6fb7" stroke-width="1.3" d="M79.28,-156.13C113.27,-169.24 173.02,-192.27 214.58,-208.3"/>
<polygon fill="#2d6fb7" stroke="#2d6fb7" stroke-width="1.3" points="213.93,-210.67 221.35,-210.9 215.7,-206.1 213.93,-210.67"/>
<text text-anchor="middle" x="151.5" y="-196.6" font-family="DejaVu Sans" font-size="8.00">relfk</text>
</g>
<!-- req&#45;&gt;site -->
<g id="edge3" class="edge">
<title>req&#45;&gt;site</title>
<path fill="none" stroke="#2d6fb7" stroke-width="1.3" d="M79.28,-139.67C117.01,-130.58 186.5,-113.83 227.6,-103.93"/>
<polygon fill="#2d6fb7" stroke="#2d6fb7" stroke-width="1.3" points="228.2,-106.3 234.43,-102.28 227.05,-101.54 228.2,-106.3"/>
<text text-anchor="middle" x="151.5" y="-131.6" font-family="DejaVu Sans" font-size="8.00">sitefk</text>
</g>
<!-- user -->
<g id="node8" class="node">
<title>user</title>
<path fill="#f6f9fd" stroke="#153a66" d="M312,-36C312,-36 211,-36 211,-36 205,-36 199,-30 199,-24 199,-24 199,-12 199,-12 199,-6 205,0 211,0 211,0 312,0 312,0 318,0 324,-6 324,-12 324,-12 324,-24 324,-24 324,-30 318,-36 312,-36"/>
<text text-anchor="middle" x="261.5" y="-21" font-family="DejaVu Sans" font-size="10.00">user / atlas_local_user</text>
<text text-anchor="middle" x="261.5" y="-10" font-family="DejaVu Sans" font-size="10.00">identity</text>
</g>
<!-- req&#45;&gt;user -->
<g id="edge4" class="edge">
<title>req&#45;&gt;user</title>
<path fill="none" stroke="#2d6fb7" stroke-width="1.3" d="M79.28,-129.79C116.21,-107.01 183.56,-65.46 224.93,-39.94"/>
<polygon fill="#2d6fb7" stroke="#2d6fb7" stroke-width="1.3" points="226.42,-41.9 231.09,-36.14 223.85,-37.73 226.42,-41.9"/>
<text text-anchor="middle" x="151.5" y="-103.6" font-family="DejaVu Sans" font-size="8.00">user/admin</text>
</g>
<!-- bdii -->
<g id="node9" class="node">
<title>bdii</title>
<path fill="#f6f9fd" stroke="#153a66" d="M276.5,-183C276.5,-183 246.5,-183 246.5,-183 240.5,-183 234.5,-177 234.5,-171 234.5,-171 234.5,-159 234.5,-159 234.5,-153 240.5,-147 246.5,-147 246.5,-147 276.5,-147 276.5,-147 282.5,-147 288.5,-153 288.5,-159 288.5,-159 288.5,-171 288.5,-171 288.5,-177 282.5,-183 276.5,-183"/>
<text text-anchor="middle" x="261.5" y="-168" font-family="DejaVu Sans" font-size="10.00">bdii</text>
<text text-anchor="middle" x="261.5" y="-157" font-family="DejaVu Sans" font-size="10.00">InfoSys</text>
</g>
<!-- req&#45;&gt;bdii -->
<g id="edge5" class="edge">
<title>req&#45;&gt;bdii</title>
<path fill="none" stroke="#2d6fb7" stroke-width="1.3" d="M79.28,-148.41C116.93,-151.85 186.21,-158.2 227.34,-161.96"/>
<polygon fill="#2d6fb7" stroke="#2d6fb7" stroke-width="1.3" points="227.24,-164.41 234.43,-162.61 227.69,-159.53 227.24,-164.41"/>
<text text-anchor="middle" x="151.5" y="-160.6" font-family="DejaVu Sans" font-size="8.00">bdiifk</text>
</g>
<!-- stat -->
<g id="node5" class="node">
<title>stat</title>
<path fill="#f6f9fd" stroke="#153a66" d="M92,-47C92,-47 12,-47 12,-47 6,-47 0,-41 0,-35 0,-35 0,-23 0,-23 0,-17 6,-11 12,-11 12,-11 92,-11 92,-11 98,-11 104,-17 104,-23 104,-23 104,-35 104,-35 104,-41 98,-47 92,-47"/>
<text text-anchor="middle" x="52" y="-32" font-family="DejaVu Sans" font-size="10.00">release_stat</text>
<text text-anchor="middle" x="52" y="-21" font-family="DejaVu Sans" font-size="10.00">installation status</text>
</g>
<!-- stat&#45;&gt;site -->
<g id="edge6" class="edge">
<title>stat&#45;&gt;site</title>
<path fill="none" stroke="#2d6fb7" stroke-width="1.3" d="M104.07,-33.14C126.85,-36.02 153.74,-40.87 177,-49 194.73,-55.2 213.05,-65.07 228.01,-74.16"/>
<polygon fill="#2d6fb7" stroke="#2d6fb7" stroke-width="1.3" points="226.96,-76.4 234.2,-78 229.54,-72.23 226.96,-76.4"/>
<text text-anchor="middle" x="151.5" y="-51.6" font-family="DejaVu Sans" font-size="8.00">sitefk</text>
</g>
<!-- stat&#45;&gt;user -->
<g id="edge7" class="edge">
<title>stat&#45;&gt;user</title>
<path fill="none" stroke="#2d6fb7" stroke-width="1.3" d="M104.13,-13.95C111.41,-12.31 118.86,-10.91 126,-10 147.26,-7.28 170.54,-7.53 191.66,-8.98"/>
<polygon fill="#2d6fb7" stroke="#2d6fb7" stroke-width="1.3" points="191.57,-11.43 198.73,-9.51 191.94,-6.54 191.57,-11.43"/>
<text text-anchor="middle" x="151.5" y="-12.6" font-family="DejaVu Sans" font-size="8.00">userfk</text>
</g>
<!-- task -->
<g id="node6" class="node">
<title>task</title>
<path fill="#f6f9fd" stroke="#153a66" d="M67,-305C67,-305 37,-305 37,-305 31,-305 25,-299 25,-293 25,-293 25,-281 25,-281 25,-275 31,-269 37,-269 37,-269 67,-269 67,-269 73,-269 79,-275 79,-281 79,-281 79,-293 79,-293 79,-299 73,-305 67,-305"/>
<text text-anchor="middle" x="52" y="-284.5" font-family="DejaVu Sans" font-size="10.00">task</text>
</g>
<!-- tgt -->
<g id="node7" class="node">
<title>tgt</title>
<path fill="#f6f9fd" stroke="#153a66" d="M301,-305C301,-305 222,-305 222,-305 216,-305 210,-299 210,-293 210,-293 210,-281 210,-281 210,-275 216,-269 222,-269 222,-269 301,-269 301,-269 307,-269 313,-275 313,-281 313,-281 313,-293 313,-293 313,-299 307,-305 301,-305"/>
<text text-anchor="middle" x="261.5" y="-290" font-family="DejaVu Sans" font-size="10.00">autoinstall_target</text>
<text text-anchor="middle" x="261.5" y="-279" font-family="DejaVu Sans" font-size="10.00">target</text>
</g>
<!-- task&#45;&gt;tgt -->
<g id="edge8" class="edge">
<title>task&#45;&gt;tgt</title>
<path fill="none" stroke="#2d6fb7" stroke-width="1.3" stroke-dasharray="5,2" d="M79.28,-287C110.14,-287 162.26,-287 202.7,-287"/>
<polygon fill="#2d6fb7" stroke="#2d6fb7" stroke-width="1.3" points="202.85,-289.45 209.85,-287 202.85,-284.55 202.85,-289.45"/>
<text text-anchor="middle" x="151.5" y="-289.6" font-family="DejaVu Sans" font-size="8.00">target name</text>
</g>
</g>
</svg>
